<svg width="20" height="20" viewBox="0 0 20 20" fill="none" xmlns="http://www.w3.org/2000/svg">
<path d="M19.8371 5.54686C19.7798 5.46545 19.7037 5.39899 19.6154 5.3531C19.527 5.30721 19.4289 5.28322 19.3293 5.28315H6.06497L5.0609 1.82065C4.66715 0.457216 3.73151 0.310028 3.34776 0.310028H0.670571C0.327427 0.310028 0.0499268 0.587841 0.0499268 0.930653C0.0499268 1.27347 0.327739 1.55126 0.670552 1.55126H3.34743C3.43211 1.55126 3.69055 1.55126 3.86682 2.16032L7.32088 14.8544C7.39588 15.1222 7.63995 15.3072 7.91836 15.3072H16.3552C16.6171 15.3072 16.8509 15.1431 16.9393 14.8966L19.9131 6.11374C19.9815 5.92343 19.9531 5.71155 19.8371 5.54686H19.8371ZM15.9185 14.0663H8.38944L6.41381 6.52472H18.4469L15.9185 14.0663ZM14.6876 16.565C13.8244 16.565 13.1251 17.2644 13.1251 18.1275C13.1251 18.9907 13.8244 19.69 14.6876 19.69C15.5507 19.69 16.2501 18.9907 16.2501 18.1275C16.2501 17.2644 15.5507 16.565 14.6876 16.565ZM9.06256 16.565C8.19944 16.565 7.50006 17.2644 7.50006 18.1275C7.50006 18.9907 8.19944 19.69 9.06256 19.69C9.92569 19.69 10.6251 18.9907 10.6251 18.1275C10.6251 17.2644 9.92569 16.565 9.06256 16.565Z" fill="white"/>
</svg>
