<svg width="20" height="20" viewBox="0 0 20 20" fill="none" xmlns="http://www.w3.org/2000/svg">
<path d="M19.837 5.54689C19.7797 5.46548 19.7036 5.39902 19.6153 5.35313C19.5269 5.30724 19.4288 5.28325 19.3292 5.28318H6.06484L5.06078 1.82068C4.66703 0.457246 3.73139 0.310059 3.34764 0.310059H0.670449C0.327305 0.310059 0.0498047 0.587871 0.0498047 0.930684C0.0498047 1.2735 0.327617 1.55129 0.67043 1.55129H3.3473C3.43199 1.55129 3.69043 1.55129 3.8667 2.16035L7.32076 14.8544C7.39576 15.1222 7.63982 15.3072 7.91824 15.3072H16.3551C16.617 15.3072 16.8507 15.1431 16.9392 14.8966L19.9129 6.11377C19.9814 5.92346 19.9529 5.71158 19.837 5.54689H19.837ZM15.9184 14.0663H8.38932L6.41369 6.52475H18.4468L15.9184 14.0663ZM14.6874 16.5651C13.8243 16.5651 13.1249 17.2644 13.1249 18.1276C13.1249 18.9907 13.8243 19.6901 14.6874 19.6901C15.5506 19.6901 16.2499 18.9907 16.2499 18.1276C16.2499 17.2644 15.5506 16.5651 14.6874 16.5651ZM9.06244 16.5651C8.19932 16.5651 7.49994 17.2644 7.49994 18.1276C7.49994 18.9907 8.19932 19.6901 9.06244 19.6901C9.92557 19.6901 10.6249 18.9907 10.6249 18.1276C10.6249 17.2644 9.92557 16.5651 9.06244 16.5651Z" fill="white"/>
<path d="M18.5 6.5H6L8.5 14.5H16L18.5 6.5Z" fill="white"/>
</svg>
