<svg width="16" height="16" viewBox="0 0 16 16" fill="none" xmlns="http://www.w3.org/2000/svg">
<path d="M15.8698 4.4375C15.8239 4.37237 15.7631 4.3192 15.6924 4.28249C15.6217 4.24577 15.5432 4.22658 15.4636 4.22653H4.85207L4.04882 1.45653C3.73382 0.365782 2.9853 0.248032 2.6783 0.248032H0.536555C0.262039 0.248032 0.0400391 0.470282 0.0400391 0.744532C0.0400391 1.01878 0.262289 1.24102 0.536539 1.24102H2.67804C2.74579 1.24102 2.95254 1.24102 3.09355 1.72827L5.8568 11.8835C5.9168 12.0978 6.11205 12.2458 6.33479 12.2458H13.0843C13.2938 12.2458 13.4808 12.1145 13.5516 11.9172L15.9306 4.891C15.9853 4.73875 15.9626 4.56925 15.8698 4.4375H15.8698ZM12.7349 11.253H6.71165L5.13115 5.21978H14.7576L12.7349 11.253ZM11.7501 13.252C11.0596 13.252 10.5001 13.8115 10.5001 14.502C10.5001 15.1925 11.0596 15.752 11.7501 15.752C12.4406 15.752 13.0001 15.1925 13.0001 14.502C13.0001 13.8115 12.4406 13.252 11.7501 13.252ZM7.25015 13.252C6.55965 13.252 6.00015 13.8115 6.00015 14.502C6.00015 15.1925 6.55965 15.752 7.25015 15.752C7.94065 15.752 8.50015 15.1925 8.50015 14.502C8.50015 13.8115 7.94065 13.252 7.25015 13.252Z" fill="#EB5757"/>
<path d="M14.7998 5.2H4.7998L6.7998 11.6H12.7998L14.7998 5.2Z" fill="#EB5757"/>
<line x1="1.97383" y1="14.2934" x2="14.2934" y2="1.02617" stroke="#EB5757" stroke-linecap="round"/>
</svg>
