<svg width="12" height="12" viewBox="0 0 12 12" fill="none" xmlns="http://www.w3.org/2000/svg">
<path d="M5.99967 7.16667L1.91634 11.25C1.76356 11.4028 1.56912 11.4792 1.33301 11.4792C1.0969 11.4792 0.902452 11.4028 0.749674 11.25C0.596896 11.0972 0.520508 10.9028 0.520508 10.6667C0.520508 10.4306 0.596896 10.2361 0.749674 10.0833L4.83301 6L0.749674 1.91667C0.596896 1.76389 0.520508 1.56944 0.520508 1.33333C0.520508 1.09722 0.596896 0.902776 0.749674 0.749998C0.902452 0.597221 1.0969 0.520832 1.33301 0.520832C1.56912 0.520832 1.76356 0.597221 1.91634 0.749998L5.99967 4.83333L10.083 0.749998C10.2358 0.597221 10.4302 0.520832 10.6663 0.520832C10.9025 0.520832 11.0969 0.597221 11.2497 0.749998C11.4025 0.902776 11.4788 1.09722 11.4788 1.33333C11.4788 1.56944 11.4025 1.76389 11.2497 1.91667L7.16634 6L11.2497 10.0833C11.4025 10.2361 11.4788 10.4306 11.4788 10.6667C11.4788 10.9028 11.4025 11.0972 11.2497 11.25C11.0969 11.4028 10.9025 11.4792 10.6663 11.4792C10.4302 11.4792 10.2358 11.4028 10.083 11.25L5.99967 7.16667Z" fill="white"/>
</svg>
