<svg width="13" height="13" viewBox="0 0 13 13" fill="none" xmlns="http://www.w3.org/2000/svg">
<path d="M1.33333 11.6667H2.26667L8.01667 5.91667L7.08333 4.98334L1.33333 10.7333V11.6667ZM10.8667 4.95L8.03333 2.15L8.96667 1.21667C9.22222 0.961114 9.53622 0.833336 9.90867 0.833336C10.2811 0.833336 10.5949 0.961114 10.85 1.21667L11.7833 2.15C12.0389 2.40556 12.1722 2.714 12.1833 3.07534C12.1944 3.43667 12.0722 3.74489 11.8167 4L10.8667 4.95ZM9.9 5.93334L2.83333 13H0V10.1667L7.06667 3.1L9.9 5.93334ZM7.55 5.45L7.08333 4.98334L8.01667 5.91667L7.55 5.45Z" fill="#4452FE"/>
</svg>
