<svg width="13" height="13" viewBox="0 0 13 13" fill="none" xmlns="http://www.w3.org/2000/svg">
<path d="M1.33333 11.6667H2.26667L8.01667 5.91666L7.08333 4.98333L1.33333 10.7333V11.6667ZM10.8667 4.95L8.03333 2.14999L8.96667 1.21666C9.22222 0.961106 9.53622 0.833328 9.90867 0.833328C10.2811 0.833328 10.5949 0.961106 10.85 1.21666L11.7833 2.14999C12.0389 2.40555 12.1722 2.71399 12.1833 3.07533C12.1944 3.43666 12.0722 3.74488 11.8167 3.99999L10.8667 4.95ZM9.9 5.93333L2.83333 13H0V10.1667L7.06667 3.1L9.9 5.93333ZM7.55 5.45L7.08333 4.98333L8.01667 5.91666L7.55 5.45Z" fill="white"/>
</svg>
