<svg width="12" height="12" viewBox="0 0 12 12" fill="none" xmlns="http://www.w3.org/2000/svg">
<path d="M5.33335 11.3333C5.14446 11.3333 4.98624 11.2693 4.85869 11.1413C4.73069 11.0138 4.66669 10.8555 4.66669 10.6667V6.66666L0.80002 1.73332C0.633353 1.5111 0.608464 1.27777 0.725353 1.03332C0.841798 0.788879 1.04446 0.666656 1.33335 0.666656H10.6667C10.9556 0.666656 11.1585 0.788879 11.2754 1.03332C11.3918 1.27777 11.3667 1.5111 11.2 1.73332L7.33335 6.66666V10.6667C7.33335 10.8555 7.26958 11.0138 7.14202 11.1413C7.01402 11.2693 6.85558 11.3333 6.66669 11.3333H5.33335Z" fill="#4452FE"/>
</svg>
