<svg width="20" height="20" viewBox="0 0 20 20" fill="none" xmlns="http://www.w3.org/2000/svg">
<path d="M5.72087 5.735C6.70791 4.74469 8.00788 4.12738 9.39915 3.98832C10.7904 3.84926 12.1869 4.19706 13.3504 4.97241C14.5139 5.74777 15.3725 6.90269 15.7797 8.24026C16.187 9.57784 16.1177 11.0153 15.5837 12.3075C15.0497 13.5997 14.084 14.6667 12.8514 15.3265C11.6187 15.9864 10.1952 16.1983 8.8238 15.9261C7.45235 15.6539 6.21777 14.9144 5.33055 13.8338C4.44332 12.7531 3.95837 11.3982 3.95837 10C3.95837 9.83424 3.89253 9.67527 3.77532 9.55806C3.65811 9.44085 3.49913 9.375 3.33337 9.375C3.16761 9.375 3.00864 9.44085 2.89143 9.55806C2.77422 9.67527 2.70837 9.83424 2.70837 10C2.70831 11.6875 3.29356 13.3228 4.36436 14.6271C5.43515 15.9314 6.92519 16.8239 8.58042 17.1524C10.2357 17.481 11.9536 17.2252 13.4414 16.4288C14.9291 15.6324 16.0946 14.3446 16.739 12.7849C17.3835 11.2253 17.467 9.49044 16.9754 7.87611C16.4838 6.26178 15.4475 4.86794 14.0432 3.93223C12.6388 2.99652 10.9534 2.57687 9.27426 2.74484C7.59511 2.91281 6.02621 3.65799 4.83504 4.85334C4.81406 4.87416 4.79456 4.89644 4.77671 4.92L3.72921 3.87167C3.67319 3.81552 3.60231 3.77653 3.52489 3.75928C3.44748 3.74202 3.36675 3.74722 3.29219 3.77426C3.21762 3.80131 3.15233 3.84907 3.10397 3.91194C3.05562 3.9748 3.02621 4.05017 3.01921 4.12917L2.72504 7.37C2.71954 7.43081 2.72747 7.49207 2.74827 7.54947C2.76906 7.60687 2.80222 7.65899 2.84539 7.70216C2.88855 7.74533 2.94068 7.77848 2.99808 7.79928C3.05547 7.82007 3.11674 7.828 3.17754 7.8225L6.41921 7.5275C6.4979 7.52009 6.57286 7.49044 6.63534 7.44203C6.69782 7.39361 6.74524 7.32842 6.77206 7.25407C6.79889 7.17972 6.80401 7.09927 6.78683 7.02211C6.76965 6.94496 6.73088 6.87429 6.67504 6.81834L5.65171 5.795C5.67619 5.77671 5.6993 5.75665 5.72087 5.735Z" fill="white" fill-opacity="0.4"/>
<path d="M10.625 5.83333C10.625 5.66757 10.5592 5.5086 10.4419 5.39139C10.3247 5.27418 10.1658 5.20833 10 5.20833C9.83424 5.20833 9.67527 5.27418 9.55806 5.39139C9.44085 5.5086 9.375 5.66757 9.375 5.83333V10C9.37496 10.106 9.40185 10.2102 9.45317 10.3029C9.50448 10.3956 9.57852 10.4738 9.66833 10.53L12.1683 12.0925C12.3089 12.1805 12.4786 12.209 12.6402 12.1718C12.7203 12.1534 12.7959 12.1194 12.8627 12.0717C12.9296 12.0241 12.9864 11.9638 13.03 11.8942C13.0736 11.8246 13.103 11.7471 13.1166 11.6661C13.1302 11.5851 13.1277 11.5023 13.1093 11.4223C13.0909 11.3422 13.0569 11.2666 13.0092 11.1998C12.9616 11.1329 12.9013 11.0761 12.8317 11.0325L10.625 9.65333V5.83333Z" fill="white" fill-opacity="0.4"/>
</svg>
