<svg width="14" height="16" viewBox="0 0 14 16" fill="none" xmlns="http://www.w3.org/2000/svg">
<path d="M12.7168 7.14805H11.5025V3.14805C11.5025 1.88555 10.4793 0.862335 9.2168 0.862335H4.78823C3.52573 0.862335 2.50251 1.88555 2.50251 3.14805V7.14805H1.28823C0.972154 7.14805 0.716797 7.40341 0.716797 7.71948V14.5766C0.716797 14.8927 0.972154 15.148 1.28823 15.148H12.7168C13.0329 15.148 13.2882 14.8927 13.2882 14.5766V7.71948C13.2882 7.40341 13.0329 7.14805 12.7168 7.14805ZM3.78823 3.14805C3.78823 2.59626 4.23644 2.14805 4.78823 2.14805H9.2168C9.76858 2.14805 10.2168 2.59626 10.2168 3.14805V7.14805H3.78823V3.14805ZM12.0025 13.8623H2.00251V8.43376H12.0025V13.8623ZM6.50251 11.3802V12.3266C6.50251 12.4052 6.5668 12.4695 6.64537 12.4695H7.35965C7.43823 12.4695 7.50251 12.4052 7.50251 12.3266V11.3802C7.64992 11.2744 7.75994 11.1245 7.81675 10.9521C7.87355 10.7798 7.87421 10.5939 7.81862 10.4211C7.76303 10.2484 7.65407 10.0978 7.50741 9.9909C7.36076 9.88403 7.18397 9.82645 7.00251 9.82645C6.82105 9.82645 6.64427 9.88403 6.49761 9.9909C6.35096 10.0978 6.24199 10.2484 6.18641 10.4211C6.13082 10.5939 6.13147 10.7798 6.18828 10.9521C6.24508 11.1245 6.35511 11.2744 6.50251 11.3802Z" fill="#4452FE"/>
</svg>
