<svg width="16" height="14" viewBox="0 0 16 14" fill="none" xmlns="http://www.w3.org/2000/svg">
<path d="M9.46964 8.59496C9.80511 8.2262 9.99048 7.74527 9.98929 7.24674C9.98929 6.14139 9.09821 5.24674 8 5.24674C6.90179 5.24674 6.01071 6.14139 6.01071 7.24674C6.01071 7.76639 6.20714 8.23782 6.53036 8.59496C6.14309 8.83494 5.81965 9.16509 5.58768 9.55721C5.3557 9.94933 5.22208 10.3918 5.19821 10.8467C5.19725 10.8661 5.20022 10.8854 5.20697 10.9036C5.21371 10.9218 5.22408 10.9384 5.23744 10.9524C5.25081 10.9664 5.26689 10.9776 5.2847 10.9852C5.30252 10.9929 5.3217 10.9968 5.34107 10.9967H6.125C6.2 10.9967 6.26071 10.9378 6.26607 10.8628C6.33393 9.95924 7.0875 9.24674 8.00179 9.24674C8.91607 9.24674 9.66964 9.96103 9.7375 10.8628C9.74286 10.9378 9.80357 10.9967 9.87857 10.9967H10.6607C10.6801 10.9968 10.6993 10.9929 10.7171 10.9852C10.7349 10.9776 10.751 10.9664 10.7643 10.9524C10.7777 10.9384 10.7881 10.9218 10.7948 10.9036C10.8016 10.8854 10.8045 10.8661 10.8036 10.8467C10.7536 9.89496 10.2321 9.06639 9.46964 8.59496ZM8 8.17532C7.49107 8.17532 7.07679 7.75924 7.07679 7.24674C7.07679 6.73424 7.49107 6.31817 8 6.31817C8.50893 6.31817 8.92321 6.73424 8.92321 7.24674C8.92321 7.75924 8.50893 8.17532 8 8.17532ZM15.4286 1.85389H12.5714V0.853886C12.5714 0.775315 12.5071 0.711029 12.4286 0.711029H11.4286C11.35 0.711029 11.2857 0.775315 11.2857 0.853886V1.85389H8.64286V0.853886C8.64286 0.775315 8.57857 0.711029 8.5 0.711029H7.5C7.42143 0.711029 7.35714 0.775315 7.35714 0.853886V1.85389H4.71429V0.853886C4.71429 0.775315 4.65 0.711029 4.57143 0.711029H3.57143C3.49286 0.711029 3.42857 0.775315 3.42857 0.853886V1.85389H0.571429C0.255357 1.85389 0 2.10924 0 2.42532V12.711C0 13.0271 0.255357 13.2825 0.571429 13.2825H15.4286C15.7446 13.2825 16 13.0271 16 12.711V2.42532C16 2.10924 15.7446 1.85389 15.4286 1.85389ZM14.7143 11.9967H1.28571V3.1396H3.42857V4.1396C3.42857 4.21817 3.49286 4.28246 3.57143 4.28246H4.57143C4.65 4.28246 4.71429 4.21817 4.71429 4.1396V3.1396H7.35714V4.1396C7.35714 4.21817 7.42143 4.28246 7.5 4.28246H8.5C8.57857 4.28246 8.64286 4.21817 8.64286 4.1396V3.1396H11.2857V4.1396C11.2857 4.21817 11.35 4.28246 11.4286 4.28246H12.4286C12.5071 4.28246 12.5714 4.21817 12.5714 4.1396V3.1396H14.7143V11.9967Z" fill="#4452FE"/>
</svg>
