<svg width="16" height="16" viewBox="0 0 16 16" fill="none" xmlns="http://www.w3.org/2000/svg">
<path d="M13.954 15.5L8.90328 10.25C8.50243 10.5833 8.04145 10.8472 7.52034 11.0417C6.99924 11.2361 6.44473 11.3333 5.85681 11.3333C4.40039 11.3333 3.16791 10.8089 2.15936 9.76C1.15082 8.71111 0.646286 7.43 0.645752 5.91667C0.645752 4.40278 1.15029 3.12167 2.15936 2.07333C3.16844 1.025 4.40092 0.500556 5.85681 0.5C7.31324 0.5 8.54572 1.02444 9.55426 2.07333C10.5628 3.12222 11.0673 4.40333 11.0679 5.91667C11.0679 6.52778 10.9743 7.10417 10.7873 7.64583C10.6002 8.1875 10.3463 8.66667 10.0257 9.08333L15.0764 14.3333L13.954 15.5ZM5.85681 9.66667C6.85894 9.66667 7.71088 9.30194 8.41264 8.5725C9.11439 7.84306 9.465 6.95778 9.46447 5.91667C9.46447 4.875 9.11359 3.98944 8.41184 3.26C7.71008 2.53056 6.85841 2.16611 5.85681 2.16667C4.85469 2.16667 4.00274 2.53139 3.30099 3.26083C2.59923 3.99028 2.24862 4.87556 2.24916 5.91667C2.24916 6.95833 2.60003 7.84389 3.30179 8.57333C4.00355 9.30278 4.85522 9.66722 5.85681 9.66667Z" fill="white" fill-opacity="0.4"/>
</svg>
