<svg width="65" height="60" viewBox="0 0 65 60" fill="none" xmlns="http://www.w3.org/2000/svg">
<mask id="path-1-inside-1_21_1332" fill="white">
<path d="M30.0137 30C30.0137 27.6339 29.1766 25.6138 27.5025 23.9397C25.8284 22.2656 23.8083 21.4286 21.4422 21.4286C19.0762 21.4286 17.0561 22.2656 15.382 23.9397C13.7079 25.6138 12.8708 27.6339 12.8708 30C12.8708 32.3661 13.7079 34.3862 15.382 36.0603C17.0561 37.7344 19.0762 38.5714 21.4422 38.5714C23.8083 38.5714 25.8284 37.7344 27.5025 36.0603C29.1766 34.3862 30.0137 32.3661 30.0137 30ZM55.728 47.1429C55.728 45.9821 55.3039 44.9777 54.4556 44.1295C53.6074 43.2812 52.603 42.8571 51.4422 42.8571C50.2815 42.8571 49.2771 43.2812 48.4289 44.1295C47.5806 44.9777 47.1565 45.9821 47.1565 47.1429C47.1565 48.3259 47.5751 49.3359 48.4121 50.173C49.2492 51.01 50.2592 51.4286 51.4422 51.4286C52.6253 51.4286 53.6353 51.01 54.4724 50.173C55.3094 49.3359 55.728 48.3259 55.728 47.1429ZM55.728 12.8571C55.728 11.6964 55.3039 10.692 54.4556 9.84374C53.6074 8.99553 52.603 8.57142 51.4422 8.57142C50.2815 8.57142 49.2771 8.99553 48.4289 9.84374C47.5806 10.692 47.1565 11.6964 47.1565 12.8571C47.1565 14.0402 47.5751 15.0502 48.4121 15.8873C49.2492 16.7243 50.2592 17.1428 51.4422 17.1428C52.6253 17.1428 53.6353 16.7243 54.4724 15.8873C55.3094 15.0502 55.728 14.0402 55.728 12.8571ZM42.8708 26.9531V33.1473C42.8708 33.3705 42.7927 33.5882 42.6364 33.8002C42.4802 34.0123 42.3016 34.1295 42.1007 34.1518L36.911 34.9554C36.6655 35.7366 36.3083 36.5848 35.8396 37.5C36.5985 38.5714 37.603 39.8549 38.853 41.3504C39.0092 41.596 39.0873 41.8192 39.0873 42.0201C39.0873 42.2879 39.0092 42.5 38.853 42.6562C38.3396 43.3259 37.4188 44.3248 36.0907 45.6529C34.7626 46.981 33.8864 47.6451 33.4623 47.6451C33.2168 47.6451 32.9824 47.567 32.7592 47.4107L28.9088 44.3973C28.0829 44.8214 27.2235 45.1674 26.3306 45.4353C26.0851 47.846 25.8284 49.5759 25.5605 50.625C25.4043 51.1607 25.0695 51.4286 24.5561 51.4286H18.3284C18.0829 51.4286 17.8597 51.3449 17.6588 51.1775C17.4579 51.01 17.3463 50.8147 17.3239 50.5915L16.5539 45.4687C15.7949 45.2455 14.9579 44.8995 14.0427 44.4308L10.0918 47.4107C9.93555 47.567 9.71233 47.6451 9.42215 47.6451C9.17662 47.6451 8.94224 47.5558 8.71903 47.3772C5.50474 44.4085 3.8976 42.6228 3.8976 42.0201C3.8976 41.8192 3.97573 41.6071 4.13198 41.3839C4.35519 41.0714 4.81278 40.4799 5.50474 39.6094C6.19671 38.7388 6.72126 38.058 7.0784 37.567C6.56501 36.5848 6.17439 35.6696 5.90653 34.8214L0.817243 34.0179C0.594029 33.9955 0.404297 33.8895 0.248047 33.6998C0.0917969 33.51 0.0136719 33.2924 0.0136719 33.0469V26.8527C0.0136719 26.6295 0.0917969 26.4118 0.248047 26.1998C0.404297 25.9877 0.582868 25.8705 0.783761 25.8482L5.97349 25.0446C6.21903 24.2634 6.57617 23.4152 7.04492 22.5C6.28599 21.4286 5.28153 20.1451 4.03153 18.6495C3.87528 18.404 3.79715 18.1808 3.79715 17.9799C3.79715 17.712 3.87528 17.4888 4.03153 17.3103C4.5226 16.6406 5.43778 15.6473 6.77707 14.3303C8.11635 13.0134 8.99805 12.3549 9.42215 12.3549C9.66769 12.3549 9.90207 12.433 10.1253 12.5893L13.9757 15.6027C14.7347 15.2009 15.594 14.8437 16.5539 14.5312C16.7994 12.1205 17.0561 10.4018 17.3239 9.37499C17.4802 8.83928 17.815 8.57142 18.3284 8.57142H24.5561C24.8016 8.57142 25.0248 8.65513 25.2257 8.82254C25.4266 8.98995 25.5382 9.18526 25.5605 9.40847L26.3306 14.5312C27.0896 14.7545 27.9266 15.1004 28.8418 15.5692L32.7927 12.5893C32.9713 12.433 33.1945 12.3549 33.4623 12.3549C33.7079 12.3549 33.9422 12.4442 34.1655 12.6228C37.3797 15.5915 38.9869 17.3772 38.9869 17.9799C38.9869 18.1585 38.9088 18.3705 38.7525 18.6161C38.4847 18.9732 38.0159 19.5759 37.3463 20.4241C36.6766 21.2723 36.1744 21.942 35.8396 22.433C36.353 23.5045 36.7324 24.4196 36.978 25.1786L42.0672 25.9487C42.2905 25.9933 42.4802 26.1105 42.6364 26.3002C42.7927 26.4899 42.8708 26.7076 42.8708 26.9531ZM64.2994 44.7991V49.4866C64.2994 49.8437 62.6364 50.1897 59.3106 50.5245C59.0427 51.1272 58.7079 51.7076 58.3061 52.2656C59.4445 54.7879 60.0137 56.3281 60.0137 56.8862C60.0137 56.9754 59.969 57.0536 59.8797 57.1205C57.1565 58.7054 55.7726 59.4978 55.728 59.4978C55.5494 59.4978 55.036 58.9732 54.1878 57.9241C53.3396 56.875 52.7592 56.1161 52.4467 55.6473C52.0003 55.692 51.6655 55.7143 51.4422 55.7143C51.219 55.7143 50.8842 55.692 50.4378 55.6473C50.1253 56.1161 49.5449 56.875 48.6967 57.9241C47.8485 58.9732 47.3351 59.4978 47.1565 59.4978C47.1119 59.4978 45.728 58.7054 43.0047 57.1205C42.9155 57.0536 42.8708 56.9754 42.8708 56.8862C42.8708 56.3281 43.44 54.7879 44.5784 52.2656C44.1766 51.7076 43.8418 51.1272 43.5739 50.5245C40.2481 50.1897 38.5851 49.8437 38.5851 49.4866V44.7991C38.5851 44.442 40.2481 44.096 43.5739 43.7612C43.8641 43.1138 44.1989 42.5335 44.5784 42.0201C43.44 39.4978 42.8708 37.9576 42.8708 37.3995C42.8708 37.3103 42.9155 37.2321 43.0047 37.1652C43.094 37.1205 43.4847 36.8973 44.1766 36.4955C44.8686 36.0937 45.5271 35.7143 46.1521 35.3571C46.7771 35 47.1119 34.8214 47.1565 34.8214C47.3351 34.8214 47.8485 35.3404 48.6967 36.3783C49.5449 37.4163 50.1253 38.1696 50.4378 38.6384C50.8842 38.5937 51.219 38.5714 51.4422 38.5714C51.6655 38.5714 52.0003 38.5937 52.4467 38.6384C53.5851 37.0536 54.6119 35.8036 55.5271 34.8884L55.728 34.8214C55.8172 34.8214 57.2012 35.6027 59.8797 37.1652C59.969 37.2321 60.0137 37.3103 60.0137 37.3995C60.0137 37.9576 59.4445 39.4978 58.3061 42.0201C58.6856 42.5335 59.0204 43.1138 59.3106 43.7612C62.6364 44.096 64.2994 44.442 64.2994 44.7991ZM64.2994 10.5134V15.2009C64.2994 15.558 62.6364 15.904 59.3106 16.2388C59.0427 16.8415 58.7079 17.4219 58.3061 17.9799C59.4445 20.5022 60.0137 22.0424 60.0137 22.6004C60.0137 22.6897 59.969 22.7679 59.8797 22.8348C57.1565 24.4196 55.7726 25.212 55.728 25.212C55.5494 25.212 55.036 24.6875 54.1878 23.6384C53.3396 22.5893 52.7592 21.8304 52.4467 21.3616C52.0003 21.4062 51.6655 21.4286 51.4422 21.4286C51.219 21.4286 50.8842 21.4062 50.4378 21.3616C50.1253 21.8304 49.5449 22.5893 48.6967 23.6384C47.8485 24.6875 47.3351 25.212 47.1565 25.212C47.1119 25.212 45.728 24.4196 43.0047 22.8348C42.9155 22.7679 42.8708 22.6897 42.8708 22.6004C42.8708 22.0424 43.44 20.5022 44.5784 17.9799C44.1766 17.4219 43.8418 16.8415 43.5739 16.2388C40.2481 15.904 38.5851 15.558 38.5851 15.2009V10.5134C38.5851 10.1562 40.2481 9.81026 43.5739 9.47544C43.8641 8.82812 44.1989 8.24776 44.5784 7.73437C43.44 5.21205 42.8708 3.67187 42.8708 3.11383C42.8708 3.02454 42.9155 2.94642 43.0047 2.87946C43.094 2.83481 43.4847 2.6116 44.1766 2.20981C44.8686 1.80803 45.5271 1.42856 46.1521 1.07142C46.7771 0.714277 47.1119 0.535706 47.1565 0.535706C47.3351 0.535706 47.8485 1.05468 48.6967 2.09263C49.5449 3.13057 50.1253 3.88392 50.4378 4.35267C50.8842 4.30803 51.219 4.28571 51.4422 4.28571C51.6655 4.28571 52.0003 4.30803 52.4467 4.35267C53.5851 2.76785 54.6119 1.51785 55.5271 0.60267L55.728 0.535706C55.8172 0.535706 57.2012 1.31696 59.8797 2.87946C59.969 2.94642 60.0137 3.02454 60.0137 3.11383C60.0137 3.67187 59.4445 5.21205 58.3061 7.73437C58.6856 8.24776 59.0204 8.82812 59.3106 9.47544C62.6364 9.81026 64.2994 10.1562 64.2994 10.5134Z"/>
</mask>
<path d="M30.0137 30C30.0137 27.6339 29.1766 25.6138 27.5025 23.9397C25.8284 22.2656 23.8083 21.4286 21.4422 21.4286C19.0762 21.4286 17.0561 22.2656 15.382 23.9397C13.7079 25.6138 12.8708 27.6339 12.8708 30C12.8708 32.3661 13.7079 34.3862 15.382 36.0603C17.0561 37.7344 19.0762 38.5714 21.4422 38.5714C23.8083 38.5714 25.8284 37.7344 27.5025 36.0603C29.1766 34.3862 30.0137 32.3661 30.0137 30ZM55.728 47.1429C55.728 45.9821 55.3039 44.9777 54.4556 44.1295C53.6074 43.2812 52.603 42.8571 51.4422 42.8571C50.2815 42.8571 49.2771 43.2812 48.4289 44.1295C47.5806 44.9777 47.1565 45.9821 47.1565 47.1429C47.1565 48.3259 47.5751 49.3359 48.4121 50.173C49.2492 51.01 50.2592 51.4286 51.4422 51.4286C52.6253 51.4286 53.6353 51.01 54.4724 50.173C55.3094 49.3359 55.728 48.3259 55.728 47.1429ZM55.728 12.8571C55.728 11.6964 55.3039 10.692 54.4556 9.84374C53.6074 8.99553 52.603 8.57142 51.4422 8.57142C50.2815 8.57142 49.2771 8.99553 48.4289 9.84374C47.5806 10.692 47.1565 11.6964 47.1565 12.8571C47.1565 14.0402 47.5751 15.0502 48.4121 15.8873C49.2492 16.7243 50.2592 17.1428 51.4422 17.1428C52.6253 17.1428 53.6353 16.7243 54.4724 15.8873C55.3094 15.0502 55.728 14.0402 55.728 12.8571ZM42.8708 26.9531V33.1473C42.8708 33.3705 42.7927 33.5882 42.6364 33.8002C42.4802 34.0123 42.3016 34.1295 42.1007 34.1518L36.911 34.9554C36.6655 35.7366 36.3083 36.5848 35.8396 37.5C36.5985 38.5714 37.603 39.8549 38.853 41.3504C39.0092 41.596 39.0873 41.8192 39.0873 42.0201C39.0873 42.2879 39.0092 42.5 38.853 42.6562C38.3396 43.3259 37.4188 44.3248 36.0907 45.6529C34.7626 46.981 33.8864 47.6451 33.4623 47.6451C33.2168 47.6451 32.9824 47.567 32.7592 47.4107L28.9088 44.3973C28.0829 44.8214 27.2235 45.1674 26.3306 45.4353C26.0851 47.846 25.8284 49.5759 25.5605 50.625C25.4043 51.1607 25.0695 51.4286 24.5561 51.4286H18.3284C18.0829 51.4286 17.8597 51.3449 17.6588 51.1775C17.4579 51.01 17.3463 50.8147 17.3239 50.5915L16.5539 45.4687C15.7949 45.2455 14.9579 44.8995 14.0427 44.4308L10.0918 47.4107C9.93555 47.567 9.71233 47.6451 9.42215 47.6451C9.17662 47.6451 8.94224 47.5558 8.71903 47.3772C5.50474 44.4085 3.8976 42.6228 3.8976 42.0201C3.8976 41.8192 3.97573 41.6071 4.13198 41.3839C4.35519 41.0714 4.81278 40.4799 5.50474 39.6094C6.19671 38.7388 6.72126 38.058 7.0784 37.567C6.56501 36.5848 6.17439 35.6696 5.90653 34.8214L0.817243 34.0179C0.594029 33.9955 0.404297 33.8895 0.248047 33.6998C0.0917969 33.51 0.0136719 33.2924 0.0136719 33.0469V26.8527C0.0136719 26.6295 0.0917969 26.4118 0.248047 26.1998C0.404297 25.9877 0.582868 25.8705 0.783761 25.8482L5.97349 25.0446C6.21903 24.2634 6.57617 23.4152 7.04492 22.5C6.28599 21.4286 5.28153 20.1451 4.03153 18.6495C3.87528 18.404 3.79715 18.1808 3.79715 17.9799C3.79715 17.712 3.87528 17.4888 4.03153 17.3103C4.5226 16.6406 5.43778 15.6473 6.77707 14.3303C8.11635 13.0134 8.99805 12.3549 9.42215 12.3549C9.66769 12.3549 9.90207 12.433 10.1253 12.5893L13.9757 15.6027C14.7347 15.2009 15.594 14.8437 16.5539 14.5312C16.7994 12.1205 17.0561 10.4018 17.3239 9.37499C17.4802 8.83928 17.815 8.57142 18.3284 8.57142H24.5561C24.8016 8.57142 25.0248 8.65513 25.2257 8.82254C25.4266 8.98995 25.5382 9.18526 25.5605 9.40847L26.3306 14.5312C27.0896 14.7545 27.9266 15.1004 28.8418 15.5692L32.7927 12.5893C32.9713 12.433 33.1945 12.3549 33.4623 12.3549C33.7079 12.3549 33.9422 12.4442 34.1655 12.6228C37.3797 15.5915 38.9869 17.3772 38.9869 17.9799C38.9869 18.1585 38.9088 18.3705 38.7525 18.6161C38.4847 18.9732 38.0159 19.5759 37.3463 20.4241C36.6766 21.2723 36.1744 21.942 35.8396 22.433C36.353 23.5045 36.7324 24.4196 36.978 25.1786L42.0672 25.9487C42.2905 25.9933 42.4802 26.1105 42.6364 26.3002C42.7927 26.4899 42.8708 26.7076 42.8708 26.9531ZM64.2994 44.7991V49.4866C64.2994 49.8437 62.6364 50.1897 59.3106 50.5245C59.0427 51.1272 58.7079 51.7076 58.3061 52.2656C59.4445 54.7879 60.0137 56.3281 60.0137 56.8862C60.0137 56.9754 59.969 57.0536 59.8797 57.1205C57.1565 58.7054 55.7726 59.4978 55.728 59.4978C55.5494 59.4978 55.036 58.9732 54.1878 57.9241C53.3396 56.875 52.7592 56.1161 52.4467 55.6473C52.0003 55.692 51.6655 55.7143 51.4422 55.7143C51.219 55.7143 50.8842 55.692 50.4378 55.6473C50.1253 56.1161 49.5449 56.875 48.6967 57.9241C47.8485 58.9732 47.3351 59.4978 47.1565 59.4978C47.1119 59.4978 45.728 58.7054 43.0047 57.1205C42.9155 57.0536 42.8708 56.9754 42.8708 56.8862C42.8708 56.3281 43.44 54.7879 44.5784 52.2656C44.1766 51.7076 43.8418 51.1272 43.5739 50.5245C40.2481 50.1897 38.5851 49.8437 38.5851 49.4866V44.7991C38.5851 44.442 40.2481 44.096 43.5739 43.7612C43.8641 43.1138 44.1989 42.5335 44.5784 42.0201C43.44 39.4978 42.8708 37.9576 42.8708 37.3995C42.8708 37.3103 42.9155 37.2321 43.0047 37.1652C43.094 37.1205 43.4847 36.8973 44.1766 36.4955C44.8686 36.0937 45.5271 35.7143 46.1521 35.3571C46.7771 35 47.1119 34.8214 47.1565 34.8214C47.3351 34.8214 47.8485 35.3404 48.6967 36.3783C49.5449 37.4163 50.1253 38.1696 50.4378 38.6384C50.8842 38.5937 51.219 38.5714 51.4422 38.5714C51.6655 38.5714 52.0003 38.5937 52.4467 38.6384C53.5851 37.0536 54.6119 35.8036 55.5271 34.8884L55.728 34.8214C55.8172 34.8214 57.2012 35.6027 59.8797 37.1652C59.969 37.2321 60.0137 37.3103 60.0137 37.3995C60.0137 37.9576 59.4445 39.4978 58.3061 42.0201C58.6856 42.5335 59.0204 43.1138 59.3106 43.7612C62.6364 44.096 64.2994 44.442 64.2994 44.7991ZM64.2994 10.5134V15.2009C64.2994 15.558 62.6364 15.904 59.3106 16.2388C59.0427 16.8415 58.7079 17.4219 58.3061 17.9799C59.4445 20.5022 60.0137 22.0424 60.0137 22.6004C60.0137 22.6897 59.969 22.7679 59.8797 22.8348C57.1565 24.4196 55.7726 25.212 55.728 25.212C55.5494 25.212 55.036 24.6875 54.1878 23.6384C53.3396 22.5893 52.7592 21.8304 52.4467 21.3616C52.0003 21.4062 51.6655 21.4286 51.4422 21.4286C51.219 21.4286 50.8842 21.4062 50.4378 21.3616C50.1253 21.8304 49.5449 22.5893 48.6967 23.6384C47.8485 24.6875 47.3351 25.212 47.1565 25.212C47.1119 25.212 45.728 24.4196 43.0047 22.8348C42.9155 22.7679 42.8708 22.6897 42.8708 22.6004C42.8708 22.0424 43.44 20.5022 44.5784 17.9799C44.1766 17.4219 43.8418 16.8415 43.5739 16.2388C40.2481 15.904 38.5851 15.558 38.5851 15.2009V10.5134C38.5851 10.1562 40.2481 9.81026 43.5739 9.47544C43.8641 8.82812 44.1989 8.24776 44.5784 7.73437C43.44 5.21205 42.8708 3.67187 42.8708 3.11383C42.8708 3.02454 42.9155 2.94642 43.0047 2.87946C43.094 2.83481 43.4847 2.6116 44.1766 2.20981C44.8686 1.80803 45.5271 1.42856 46.1521 1.07142C46.7771 0.714277 47.1119 0.535706 47.1565 0.535706C47.3351 0.535706 47.8485 1.05468 48.6967 2.09263C49.5449 3.13057 50.1253 3.88392 50.4378 4.35267C50.8842 4.30803 51.219 4.28571 51.4422 4.28571C51.6655 4.28571 52.0003 4.30803 52.4467 4.35267C53.5851 2.76785 54.6119 1.51785 55.5271 0.60267L55.728 0.535706C55.8172 0.535706 57.2012 1.31696 59.8797 2.87946C59.969 2.94642 60.0137 3.02454 60.0137 3.11383C60.0137 3.67187 59.4445 5.21205 58.3061 7.73437C58.6856 8.24776 59.0204 8.82812 59.3106 9.47544C62.6364 9.81026 64.2994 10.1562 64.2994 10.5134Z" stroke="white" stroke-width="2.4" mask="url(#path-1-inside-1_21_1332)"/>
</svg>
