<svg width="32" height="32" viewBox="0 0 32 32" fill="none" xmlns="http://www.w3.org/2000/svg">
<path d="M10.9466 23.0933L9.33325 22.4C9.57447 22.8942 9.95399 23.3078 10.4257 23.5905C10.8975 23.8732 11.4412 24.0128 11.9907 23.9924C12.5403 23.972 13.0722 23.7925 13.5217 23.4757C13.9712 23.1588 14.319 22.7183 14.523 22.2076C14.7269 21.6968 14.7782 21.1378 14.6706 20.5985C14.5629 20.0592 14.301 19.5627 13.9166 19.1694C13.5323 18.7761 13.042 18.5028 12.5053 18.3828C11.9686 18.2628 11.4086 18.3012 10.8933 18.4933L12.5999 19.2C13.1162 19.4157 13.5257 19.8277 13.7382 20.3453C13.9507 20.8629 13.949 21.4437 13.7333 21.96C13.5175 22.4763 13.1056 22.8857 12.588 23.0983C12.0704 23.3108 11.4895 23.309 10.9733 23.0933H10.9466Z" fill="white"/>
<path d="M16.0001 2.66666C12.6112 2.65927 9.34662 3.9426 6.86996 6.2558C4.39331 8.569 2.89041 11.7385 2.66675 15.12L9.84008 18.0667C10.0361 17.9364 10.2463 17.829 10.4667 17.7467C10.9502 17.539 11.4744 17.4433 12.0001 17.4667L15.2534 12.72C15.2534 11.7179 15.5506 10.7383 16.1073 9.9051C16.664 9.07189 17.4553 8.42249 18.3812 8.039C19.307 7.65552 20.3257 7.55518 21.3085 7.75068C22.2914 7.94618 23.1942 8.42873 23.9028 9.13732C24.6113 9.8459 25.0939 10.7487 25.2894 11.7315C25.4849 12.7144 25.3846 13.7331 25.0011 14.6589C24.6176 15.5847 23.9682 16.376 23.135 16.9328C22.3018 17.4895 21.3222 17.7867 20.3201 17.7867H20.2134L15.5334 21.12C15.5547 22.0352 15.2354 22.9257 14.6374 23.6188C14.0393 24.3119 13.2052 24.7582 12.2967 24.8711C11.3883 24.984 10.4702 24.7556 9.72069 24.23C8.97114 23.7044 8.4435 22.9192 8.24008 22.0267L3.21341 19.8933C3.93396 22.2534 5.29531 24.3672 7.14592 25.9995C8.99653 27.6317 11.2638 28.7184 13.6954 29.1386C16.1269 29.5587 18.6274 29.2959 20.9185 28.3793C23.2095 27.4626 25.2012 25.9282 26.672 23.9468C28.1427 21.9654 29.0347 19.6147 29.2487 17.1564C29.4628 14.6981 28.9904 12.2286 27.8842 10.0229C26.778 7.81708 25.0814 5.96156 22.9833 4.6628C20.8851 3.36405 18.4677 2.67303 16.0001 2.66666Z" fill="white"/>
<path d="M23.7201 12.6667C23.728 11.9978 23.5369 11.3417 23.1711 10.7818C22.8053 10.2218 22.2813 9.7832 21.6656 9.52173C21.05 9.26027 20.3705 9.18773 19.7135 9.31334C19.0565 9.43895 18.4517 9.75703 17.9759 10.2272C17.5002 10.6973 17.1749 11.2983 17.0414 11.9537C16.908 12.6091 16.9724 13.2894 17.2265 13.9082C17.4806 14.5269 17.9129 15.0561 18.4685 15.4286C19.0241 15.8011 19.6779 15.9999 20.3467 16C21.2335 15.9966 22.0835 15.6456 22.7142 15.0223C23.345 14.3991 23.7061 13.5533 23.7201 12.6667ZM17.8267 12.6667C17.8294 12.1662 17.9802 11.6777 18.2601 11.2629C18.5401 10.848 18.9367 10.5254 19.3998 10.3357C19.8629 10.146 20.3719 10.0977 20.8624 10.197C21.353 10.2962 21.8031 10.5385 22.1561 10.8934C22.509 11.2482 22.749 11.6996 22.8456 12.1906C22.9423 12.6817 22.8914 13.1904 22.6993 13.6525C22.5071 14.1146 22.1824 14.5095 21.7661 14.7873C21.3498 15.0651 20.8605 15.2133 20.3601 15.2133C20.0251 15.2133 19.6935 15.1469 19.3844 15.018C19.0753 14.889 18.7948 14.7 18.5592 14.4619C18.3236 14.2239 18.1376 13.9414 18.0119 13.631C17.8861 13.3205 17.8232 12.9882 17.8267 12.6533V12.6667Z" fill="white"/>
</svg>
