<svg width="0" height="0" class="hidden">
  <symbol fill="" xmlns="http://www.w3.org/2000/svg" viewBox="0 0 20 20" id="cart">
    <path d="M19.8371 5.54686C19.7798 5.46545 19.7037 5.39899 19.6154 5.3531C19.527 5.30721 19.4289 5.28322 19.3293 5.28315H6.06497L5.0609 1.82065C4.66715 0.457216 3.73151 0.310028 3.34776 0.310028H0.670571C0.327427 0.310028 0.0499268 0.587841 0.0499268 0.930653C0.0499268 1.27347 0.327739 1.55126 0.670552 1.55126H3.34743C3.43211 1.55126 3.69055 1.55126 3.86682 2.16032L7.32088 14.8544C7.39588 15.1222 7.63995 15.3072 7.91836 15.3072H16.3552C16.6171 15.3072 16.8509 15.1431 16.9393 14.8966L19.9131 6.11374C19.9815 5.92343 19.9531 5.71155 19.8371 5.54686H19.8371ZM15.9185 14.0663H8.38944L6.41381 6.52472H18.4469L15.9185 14.0663ZM14.6876 16.565C13.8244 16.565 13.1251 17.2644 13.1251 18.1275C13.1251 18.9907 13.8244 19.69 14.6876 19.69C15.5507 19.69 16.2501 18.9907 16.2501 18.1275C16.2501 17.2644 15.5507 16.565 14.6876 16.565ZM9.06256 16.565C8.19944 16.565 7.50006 17.2644 7.50006 18.1275C7.50006 18.9907 8.19944 19.69 9.06256 19.69C9.92569 19.69 10.6251 18.9907 10.6251 18.1275C10.6251 17.2644 9.92569 16.565 9.06256 16.565Z" fill=""></path>
  </symbol>
  <symbol xmlns="http://www.w3.org/2000/svg" fill="none" stroke="currentColor" stroke-width="2" stroke-linecap="round" stroke-linejoin="round" viewBox="0 0 24 24" id="help">
    <circle cx="12" cy="12" r="10"></circle>
    <line x1="12" y1="16" x2="12" y2="12"></line>
    <line x1="12" y1="8" x2="12.01" y2="8"></line>
  </symbol>
  <symbol fill="" xmlns="http://www.w3.org/2000/svg" viewBox="0 0 20 20" id="history">
    <path d="M5.72087 5.735C6.70791 4.74469 8.00788 4.12738 9.39915 3.98832C10.7904 3.84926 12.1869 4.19706 13.3504 4.97241C14.5139 5.74777 15.3725 6.90269 15.7797 8.24026C16.187 9.57784 16.1177 11.0153 15.5837 12.3075C15.0497 13.5997 14.084 14.6667 12.8514 15.3265C11.6187 15.9864 10.1952 16.1983 8.8238 15.9261C7.45235 15.6539 6.21777 14.9144 5.33055 13.8338C4.44332 12.7531 3.95837 11.3982 3.95837 10C3.95837 9.83424 3.89253 9.67527 3.77532 9.55806C3.65811 9.44085 3.49913 9.375 3.33337 9.375C3.16761 9.375 3.00864 9.44085 2.89143 9.55806C2.77422 9.67527 2.70837 9.83424 2.70837 10C2.70831 11.6875 3.29356 13.3228 4.36436 14.6271C5.43515 15.9314 6.92519 16.8239 8.58042 17.1524C10.2357 17.481 11.9536 17.2252 13.4414 16.4288C14.9291 15.6324 16.0946 14.3446 16.739 12.7849C17.3835 11.2253 17.467 9.49044 16.9754 7.87611C16.4838 6.26178 15.4475 4.86794 14.0432 3.93223C12.6388 2.99652 10.9534 2.57687 9.27426 2.74484C7.59511 2.91281 6.02621 3.65799 4.83504 4.85334C4.81406 4.87416 4.79456 4.89644 4.77671 4.92L3.72921 3.87167C3.67319 3.81552 3.60231 3.77653 3.52489 3.75928C3.44748 3.74202 3.36675 3.74722 3.29219 3.77426C3.21762 3.80131 3.15233 3.84907 3.10397 3.91194C3.05562 3.9748 3.02621 4.05017 3.01921 4.12917L2.72504 7.37C2.71954 7.43081 2.72747 7.49207 2.74827 7.54947C2.76906 7.60687 2.80222 7.65899 2.84539 7.70216C2.88855 7.74533 2.94068 7.77848 2.99808 7.79928C3.05547 7.82007 3.11674 7.828 3.17754 7.8225L6.41921 7.5275C6.4979 7.52009 6.57286 7.49044 6.63534 7.44203C6.69782 7.39361 6.74524 7.32842 6.77206 7.25407C6.79889 7.17972 6.80401 7.09927 6.78683 7.02211C6.76965 6.94496 6.73088 6.87429 6.67504 6.81834L5.65171 5.795C5.67619 5.77671 5.6993 5.75665 5.72087 5.735Z" fill="" fill-opacity=""></path>
    <path d="M10.625 5.83333C10.625 5.66757 10.5592 5.5086 10.4419 5.39139C10.3247 5.27418 10.1658 5.20833 10 5.20833C9.83424 5.20833 9.67527 5.27418 9.55806 5.39139C9.44085 5.5086 9.375 5.66757 9.375 5.83333V10C9.37496 10.106 9.40185 10.2102 9.45317 10.3029C9.50448 10.3956 9.57852 10.4738 9.66833 10.53L12.1683 12.0925C12.3089 12.1805 12.4786 12.209 12.6402 12.1718C12.7203 12.1534 12.7959 12.1194 12.8627 12.0717C12.9296 12.0241 12.9864 11.9638 13.03 11.8942C13.0736 11.8246 13.103 11.7471 13.1166 11.6661C13.1302 11.5851 13.1277 11.5023 13.1093 11.4223C13.0909 11.3422 13.0569 11.2666 13.0092 11.1998C12.9616 11.1329 12.9013 11.0761 12.8317 11.0325L10.625 9.65333V5.83333Z" fill="" fill-opacity=""></path>
  </symbol>
  <symbol fill="" xmlns="http://www.w3.org/2000/svg" viewBox="0 0 20 20" id="sale">
    <path d="M4.5 2C4.10218 2 3.72064 2.15804 3.43934 2.43934C3.15804 2.72064 3 3.10218 3 3.5V16.5C3 16.8978 3.15804 17.2794 3.43934 17.5607C3.72064 17.842 4.10218 18 4.5 18H11.5C11.8978 18 12.2794 17.842 12.5607 17.5607C12.842 17.2794 13 16.8978 13 16.5V15C13 14.8674 12.9473 14.7402 12.8536 14.6464C12.7598 14.5527 12.6326 14.5 12.5 14.5C12.087 14.5 11.823 14.398 11.644 14.264C11.461 14.127 11.322 13.922 11.22 13.641C11.006 13.053 11 12.274 11 11.5C11 11.4342 10.987 11.3691 10.9618 11.3084C10.9365 11.2476 10.8996 11.1924 10.853 11.146L10.567 10.859L9.354 9.646C8.887 9.179 8.75 8.866 8.724 8.691C8.704 8.551 8.746 8.457 8.846 8.361C9.06 8.156 9.213 8.017 9.386 7.975C9.489 7.949 9.724 7.931 10.146 8.353L13.146 11.353C13.2398 11.4469 13.367 11.4997 13.4996 11.4998C13.5653 11.4998 13.6304 11.4869 13.6911 11.4618C13.7518 11.4367 13.807 11.3999 13.8535 11.3535C13.9 11.3071 13.9369 11.252 13.9621 11.1913C13.9872 11.1306 14.0002 11.0656 14.0003 10.9999C14.0003 10.9342 13.9874 10.8691 13.9623 10.8084C13.9372 10.7477 13.9004 10.6925 13.854 10.646L13 9.793V6.707L15.56 9.267C15.6994 9.40627 15.8101 9.57166 15.8856 9.75372C15.9611 9.93577 16 10.1309 16 10.328V17.5C16 17.6326 16.0527 17.7598 16.1464 17.8536C16.2402 17.9473 16.3674 18 16.5 18C16.6326 18 16.7598 17.9473 16.8536 17.8536C16.9473 17.7598 17 17.6326 17 17.5V10.328C16.9999 9.66526 16.7366 9.02969 16.268 8.561L13 5.293V3.5C13 3.10218 12.842 2.72064 12.5607 2.43934C12.2794 2.15804 11.8978 2 11.5 2H4.5ZM12 5.5V8.793L10.854 7.646C10.275 7.068 9.7 6.869 9.149 7.003C9.04076 7.02971 8.93579 7.06828 8.836 7.118C8.38899 6.98851 7.918 6.96476 7.46023 7.04862C7.00246 7.13248 6.57047 7.32166 6.1984 7.6012C5.82632 7.88074 5.52436 8.24298 5.31638 8.6593C5.10839 9.07563 5.00008 9.53462 5 10C4.99996 10.5799 5.16802 11.1475 5.48383 11.6339C5.79964 12.1203 6.24967 12.5047 6.77945 12.7407C7.30923 12.9766 7.89604 13.054 8.46886 12.9633C9.04168 12.8727 9.57595 12.618 10.007 12.23C10.024 12.808 10.082 13.44 10.28 13.983C10.428 14.39 10.664 14.779 11.044 15.063L11.05 15.069C10.7455 15.1648 10.4795 15.3552 10.2906 15.6125C10.1018 15.8699 9.99998 16.1808 10 16.5V17H6V16.5C6 16.1022 5.84196 15.7206 5.56066 15.4393C5.27936 15.158 4.89782 15 4.5 15H4V5H4.5C4.89782 5 5.27936 4.84196 5.56066 4.56066C5.84196 4.27936 6 3.89782 6 3.5V3H10V3.5C10 3.89782 10.158 4.27936 10.4393 4.56066C10.7206 4.84196 11.1022 5 11.5 5H12V5.5ZM12 16.5V16.509C11.9976 16.64 11.9439 16.7649 11.8504 16.8568C11.7569 16.9486 11.6311 17 11.5 17H11V16.5C11 16.3674 11.0527 16.2402 11.1464 16.1464C11.2402 16.0527 11.3674 16 11.5 16H12V16.5ZM6 10C6.00001 9.49138 6.19379 9.00188 6.54193 8.63108C6.89006 8.26028 7.36639 8.03604 7.874 8.004C7.75 8.234 7.687 8.514 7.735 8.837C7.806 9.319 8.113 9.82 8.646 10.353L9.553 11.26C9.29262 11.5809 8.93925 11.8132 8.54146 11.9251C8.14367 12.0369 7.72099 12.0229 7.33153 11.8847C6.94207 11.7466 6.60495 11.4913 6.36652 11.1538C6.12809 10.8163 6.00005 10.4132 6 10ZM5 3V3.5C5 3.63261 4.94732 3.75979 4.85355 3.85355C4.75979 3.94732 4.63261 4 4.5 4H4V3.5C4 3.36739 4.05268 3.24021 4.14645 3.14645C4.24021 3.05268 4.36739 3 4.5 3H5ZM4 16H4.5C4.63261 16 4.75979 16.0527 4.85355 16.1464C4.94732 16.2402 5 16.3674 5 16.5V17H4.5C4.36739 17 4.24021 16.9473 4.14645 16.8536C4.05268 16.7598 4 16.6326 4 16.5V16ZM12 4H11.5C11.3674 4 11.2402 3.94732 11.1464 3.85355C11.0527 3.75979 11 3.63261 11 3.5V3H11.5C11.6326 3 11.7598 3.05268 11.8536 3.14645C11.9473 3.24021 12 3.36739 12 3.5V4Z" fill="" fill-opacity=""></path>
  </symbol>
   <symbol fill="none" xmlns="http://www.w3.org/2000/svg" viewBox="0 0 20 20" id="cart-white">
    <path d="M19.837 5.54689C19.7797 5.46548 19.7036 5.39902 19.6153 5.35313C19.5269 5.30724 19.4288 5.28325 19.3292 5.28318H6.06484L5.06078 1.82068C4.66703 0.457246 3.73139 0.310059 3.34764 0.310059H0.670449C0.327305 0.310059 0.0498047 0.587871 0.0498047 0.930684C0.0498047 1.2735 0.327617 1.55129 0.67043 1.55129H3.3473C3.43199 1.55129 3.69043 1.55129 3.8667 2.16035L7.32076 14.8544C7.39576 15.1222 7.63982 15.3072 7.91824 15.3072H16.3551C16.617 15.3072 16.8507 15.1431 16.9392 14.8966L19.9129 6.11377C19.9814 5.92346 19.9529 5.71158 19.837 5.54689H19.837ZM15.9184 14.0663H8.38932L6.41369 6.52475H18.4468L15.9184 14.0663ZM14.6874 16.5651C13.8243 16.5651 13.1249 17.2644 13.1249 18.1276C13.1249 18.9907 13.8243 19.6901 14.6874 19.6901C15.5506 19.6901 16.2499 18.9907 16.2499 18.1276C16.2499 17.2644 15.5506 16.5651 14.6874 16.5651ZM9.06244 16.5651C8.19932 16.5651 7.49994 17.2644 7.49994 18.1276C7.49994 18.9907 8.19932 19.6901 9.06244 19.6901C9.92557 19.6901 10.6249 18.9907 10.6249 18.1276C10.6249 17.2644 9.92557 16.5651 9.06244 16.5651Z" fill="white"></path>
    <path d="M18.5 6.5H6L8.5 14.5H16L18.5 6.5Z" fill="white"></path>
  </symbol>
    <symbol fill="none" xmlns="http://www.w3.org/2000/svg" viewBox="0 0 12 12" id="close">
    <path d="M5.99967 7.16667L1.91634 11.25C1.76356 11.4028 1.56912 11.4792 1.33301 11.4792C1.0969 11.4792 0.902452 11.4028 0.749674 11.25C0.596896 11.0972 0.520508 10.9028 0.520508 10.6667C0.520508 10.4306 0.596896 10.2361 0.749674 10.0833L4.83301 6L0.749674 1.91667C0.596896 1.76389 0.520508 1.56944 0.520508 1.33333C0.520508 1.09722 0.596896 0.902776 0.749674 0.749998C0.902452 0.597221 1.0969 0.520832 1.33301 0.520832C1.56912 0.520832 1.76356 0.597221 1.91634 0.749998L5.99967 4.83333L10.083 0.749998C10.2358 0.597221 10.4302 0.520832 10.6663 0.520832C10.9025 0.520832 11.0969 0.597221 11.2497 0.749998C11.4025 0.902776 11.4788 1.09722 11.4788 1.33333C11.4788 1.56944 11.4025 1.76389 11.2497 1.91667L7.16634 6L11.2497 10.0833C11.4025 10.2361 11.4788 10.4306 11.4788 10.6667C11.4788 10.9028 11.4025 11.0972 11.2497 11.25C11.0969 11.4028 10.9025 11.4792 10.6663 11.4792C10.4302 11.4792 10.2358 11.4028 10.083 11.25L5.99967 7.16667Z" fill="white"></path>
  </symbol>
    <symbol fill="" xmlns="http://www.w3.org/2000/svg" viewBox="0 0 30 30" id="fb">
    <path fill-rule="evenodd" clip-rule="evenodd" d="M0 15.0838C0 22.5413 5.41625 28.7425 12.5 30V19.1663H8.75V15H12.5V11.6663C12.5 7.91625 14.9163 5.83375 18.3337 5.83375C19.4163 5.83375 20.5837 6 21.6663 6.16625V10H19.75C17.9163 10 17.5 10.9163 17.5 12.0837V15H21.5L20.8337 19.1663H17.5V30C24.5837 28.7425 30 22.5425 30 15.0838C30 6.7875 23.25 0 15 0C6.75 0 0 6.7875 0 15.0838Z" fill="" fill-opacity=""></path>
  </symbol>
  <symbol fill="" xmlns="http://www.w3.org/2000/svg" viewBox="0 0 30 30" id="tg">
    <path fill-rule="evenodd" clip-rule="evenodd" d="M30 15C30 23.2838 23.2838 30 15 30C6.71625 30 0 23.2838 0 15C0 6.71625 6.71625 0 15 0C23.2838 0 30 6.71625 30 15ZM15.5375 11.0738C14.0788 11.68 11.1625 12.9362 6.79 14.8413C6.08 15.1237 5.7075 15.4 5.67375 15.67C5.61625 16.1275 6.18875 16.3075 6.96625 16.5513C7.0725 16.585 7.1825 16.6187 7.295 16.6562C8.06125 16.905 9.09125 17.1962 9.62625 17.2075C10.1125 17.2175 10.655 17.0175 11.2537 16.6075C15.3387 13.8488 17.4475 12.455 17.58 12.425C17.6737 12.4037 17.8037 12.3762 17.8913 12.455C17.9788 12.5325 17.97 12.68 17.9613 12.72C17.9038 12.9612 15.6613 15.0475 14.4987 16.1275C14.1362 16.4638 13.88 16.7025 13.8275 16.7575C13.71 16.8787 13.59 16.995 13.475 17.1063C12.7625 17.7913 12.23 18.3062 13.505 19.1462C14.1175 19.55 14.6075 19.8838 15.0962 20.2163C15.63 20.58 16.1625 20.9425 16.8525 21.395C17.0275 21.51 17.195 21.6287 17.3587 21.745C17.98 22.1887 18.5387 22.5862 19.2288 22.5237C19.6287 22.4862 20.0437 22.11 20.2537 20.9862C20.75 18.3287 21.7275 12.5738 21.9538 10.2013C21.9675 10.0043 21.9591 9.80636 21.9287 9.61125C21.9106 9.45366 21.8338 9.30866 21.7138 9.205C21.535 9.05875 21.2575 9.0275 21.1325 9.03C20.5688 9.04 19.7038 9.34125 15.5375 11.0738Z" fill="" fill-opacity=""></path>
  </symbol>
  <symbol fill="" xmlns="http://www.w3.org/2000/svg" viewBox="0 0 30 30" id="twitter">
    <path d="M15 0C6.71652 0 0 6.71652 0 15C0 23.2835 6.71652 30 15 30C23.2835 30 30 23.2835 30 15C30 6.71652 23.2835 0 15 0ZM22.2087 11.3069C22.2187 11.4643 22.2187 11.6283 22.2187 11.7891C22.2187 16.7042 18.4754 22.3661 11.635 22.3661C9.52567 22.3661 7.57031 21.7533 5.92299 20.6987C6.22433 20.7321 6.51228 20.7455 6.82031 20.7455C8.56138 20.7455 10.1618 20.1562 11.4375 19.1585C9.80357 19.125 8.4308 18.0536 7.96205 16.5804C8.5346 16.6641 9.05022 16.6641 9.63951 16.5134C8.79819 16.3425 8.04199 15.8855 7.49938 15.2203C6.95678 14.555 6.66123 13.7223 6.66295 12.8638V12.817C7.15513 13.0949 7.73438 13.2656 8.3404 13.2891C7.83095 12.9495 7.41314 12.4895 7.12403 11.9499C6.83493 11.4102 6.68345 10.8075 6.68304 10.1953C6.68304 9.50223 6.86384 8.86942 7.18862 8.32031C8.12244 9.46988 9.28771 10.4101 10.6087 11.0798C11.9297 11.7495 13.3768 12.1338 14.856 12.2076C14.3304 9.67969 16.2188 7.63393 18.4888 7.63393C19.5603 7.63393 20.5246 8.08259 21.2042 8.8058C22.0446 8.64844 22.8482 8.3337 23.5647 7.91183C23.2868 8.77232 22.7042 9.49888 21.9308 9.95759C22.6808 9.87723 23.404 9.66964 24.0737 9.37835C23.5681 10.1217 22.9353 10.7812 22.2087 11.3069Z" fill="" fill-opacity=""></path>
  </symbol>
  <symbol fill="" xmlns="http://www.w3.org/2000/svg" viewBox="0 0 30 30" id="vk">
    <path d="M15 0C6.71562 0 0 6.71562 0 15C0 23.2844 6.71562 30 15 30C23.2844 30 30 23.2844 30 15C30 6.71562 23.2844 0 15 0ZM20.7687 16.9234C20.7687 16.9234 22.0953 18.2328 22.4219 18.8406C22.4312 18.8531 22.4359 18.8656 22.4391 18.8719C22.5719 19.0953 22.6031 19.2687 22.5375 19.3984C22.4281 19.6141 22.0531 19.7203 21.925 19.7297H19.5812C19.4187 19.7297 19.0781 19.6875 18.6656 19.4031C18.3484 19.1812 18.0359 18.8172 17.7312 18.4625C17.2766 17.9344 16.8828 17.4781 16.4859 17.4781C16.4355 17.478 16.3854 17.4859 16.3375 17.5016C16.0375 17.5984 15.6531 18.0266 15.6531 19.1672C15.6531 19.5234 15.3719 19.7281 15.1734 19.7281H14.1C13.7344 19.7281 11.8297 19.6 10.1422 17.8203C8.07656 15.6406 6.21719 11.2687 6.20156 11.2281C6.08437 10.9453 6.32656 10.7937 6.59062 10.7937H8.95781C9.27344 10.7937 9.37656 10.9859 9.44844 11.1562C9.53281 11.3547 9.84219 12.1437 10.35 13.0312C11.1734 14.4781 11.6781 15.0656 12.0828 15.0656C12.1587 15.0647 12.2332 15.0454 12.3 15.0094C12.8281 14.7156 12.7297 12.8328 12.7062 12.4422C12.7062 12.3687 12.7047 11.6 12.4344 11.2312C12.2406 10.9641 11.9109 10.8625 11.7109 10.825C11.7919 10.7133 11.8985 10.6227 12.0219 10.5609C12.3844 10.3797 13.0375 10.3531 13.6859 10.3531H14.0469C14.75 10.3625 14.9313 10.4078 15.1859 10.4719C15.7016 10.5953 15.7125 10.9281 15.6672 12.0672C15.6531 12.3906 15.6391 12.7562 15.6391 13.1875C15.6391 13.2812 15.6344 13.3812 15.6344 13.4875C15.6187 14.0672 15.6 14.725 16.0094 14.9953C16.0628 15.0288 16.1245 15.0467 16.1875 15.0469C16.3297 15.0469 16.7578 15.0469 17.9172 13.0578C18.2747 12.4176 18.5855 11.7523 18.8469 11.0672C18.8703 11.0266 18.9391 10.9016 19.0203 10.8531C19.0803 10.8226 19.1468 10.807 19.2141 10.8078H21.9969C22.3 10.8078 22.5078 10.8531 22.5469 10.9703C22.6156 11.1562 22.5344 11.7234 21.2641 13.4437L20.6969 14.1922C19.5453 15.7016 19.5453 15.7781 20.7687 16.9234Z" fill="" fill-opacity=""></path>
  </symbol>
    <symbol fill="none" xmlns="http://www.w3.org/2000/svg" viewBox="0 0 12 12" id="filter">
    <path d="M5.33335 11.3333C5.14446 11.3333 4.98624 11.2693 4.85869 11.1413C4.73069 11.0138 4.66669 10.8555 4.66669 10.6667V6.66666L0.80002 1.73332C0.633353 1.5111 0.608464 1.27777 0.725353 1.03332C0.841798 0.788879 1.04446 0.666656 1.33335 0.666656H10.6667C10.9556 0.666656 11.1585 0.788879 11.2754 1.03332C11.3918 1.27777 11.3667 1.5111 11.2 1.73332L7.33335 6.66666V10.6667C7.33335 10.8555 7.26958 11.0138 7.14202 11.1413C7.01402 11.2693 6.85558 11.3333 6.66669 11.3333H5.33335Z" fill="#4452FE"></path>
  </symbol>
</svg>